<svg xmlns="http://www.w3.org/2000/svg" width="21" height="25" fill="none"><path fill="#0001FF" d="M3.583 5.913a2.647 2.647 0 1 0 0-5.294 2.647 2.647 0 0 0 0 5.294"/><path fill="#0001FF" d="M8.382 9.224a2.647 2.647 0 1 0 0-5.295 2.647 2.647 0 0 0 0 5.295m4.47 3.809a2.647 2.647 0 1 0 0-5.295 2.647 2.647 0 0 0 0 5.295"/><path fill="#0001FF" d="M17.651 16.342a2.647 2.647 0 1 0 0-5.295 2.647 2.647 0 0 0 0 5.295m-4.136 4.138a2.647 2.647 0 1 0 0-5.295 2.647 2.647 0 0 0 0 5.295m-4.137 4.139a2.647 2.647 0 1 0 0-5.295 2.647 2.647 0 0 0 0 5.294zm-.996-7.781a2.647 2.647 0 1 0 0-5.295 2.647 2.647 0 0 0 0 5.295"/></svg>