<svg width="473" height="68" viewBox="0 0 473 68" fill="none" xmlns="http://www.w3.org/2000/svg">
<circle cx="11.3312" cy="21.3312" r="11.3312" fill="#FB8C00"/>
<rect x="25.3377" y="10" width="42.4918" height="22.6623" rx="11.3312" fill="#1E88E5"/>
<rect y="35.3376" width="42.4918" height="22.6623" rx="11.3312" fill="#E53935"/>
<circle cx="56.4983" cy="46.6688" r="11.3312" fill="#00897B"/>
<path d="M84.304 54V13.2727H109.56V18.5625H90.4488V30.9716H107.75V36.2415H90.4488V54H84.304ZM127.263 54.6165C124.4 54.6165 121.901 53.9602 119.766 52.6477C117.632 51.3352 115.975 49.4991 114.795 47.1392C113.615 44.7794 113.025 42.0218 113.025 38.8665C113.025 35.6979 113.615 32.9271 114.795 30.554C115.975 28.1809 117.632 26.3381 119.766 25.0256C121.901 23.7131 124.4 23.0568 127.263 23.0568C130.127 23.0568 132.626 23.7131 134.761 25.0256C136.895 26.3381 138.552 28.1809 139.732 30.554C140.912 32.9271 141.502 35.6979 141.502 38.8665C141.502 42.0218 140.912 44.7794 139.732 47.1392C138.552 49.4991 136.895 51.3352 134.761 52.6477C132.626 53.9602 130.127 54.6165 127.263 54.6165ZM127.283 49.625C129.139 49.625 130.677 49.1345 131.897 48.1534C133.117 47.1723 134.018 45.8665 134.602 44.2358C135.198 42.6051 135.496 40.8087 135.496 38.8466C135.496 36.8977 135.198 35.108 134.602 33.4773C134.018 31.8333 133.117 30.5142 131.897 29.5199C130.677 28.5256 129.139 28.0284 127.283 28.0284C125.414 28.0284 123.863 28.5256 122.63 29.5199C121.41 30.5142 120.502 31.8333 119.906 33.4773C119.322 35.108 119.031 36.8977 119.031 38.8466C119.031 40.8087 119.322 42.6051 119.906 44.2358C120.502 45.8665 121.41 47.1723 122.63 48.1534C123.863 49.1345 125.414 49.625 127.283 49.625ZM167.489 41.3324V23.4545H173.455V54H167.608V48.7102H167.29C166.587 50.3409 165.46 51.6998 163.909 52.7869C162.371 53.8608 160.455 54.3977 158.162 54.3977C156.2 54.3977 154.463 53.9669 152.952 53.1051C151.454 52.2301 150.274 50.9375 149.412 49.2273C148.563 47.517 148.139 45.4025 148.139 42.8835V23.4545H154.085V42.1676C154.085 44.2491 154.662 45.9062 155.815 47.1392C156.969 48.3722 158.467 48.9886 160.31 48.9886C161.423 48.9886 162.53 48.7102 163.631 48.1534C164.744 47.5966 165.666 46.7547 166.395 45.6278C167.137 44.5009 167.502 43.0691 167.489 41.3324ZM187.39 35.8636V54H181.444V23.4545H187.151V28.4261H187.529C188.232 26.8087 189.332 25.5095 190.83 24.5284C192.342 23.5473 194.244 23.0568 196.538 23.0568C198.619 23.0568 200.442 23.4943 202.006 24.3693C203.571 25.2311 204.784 26.517 205.646 28.2273C206.507 29.9375 206.938 32.0521 206.938 34.571V54H200.992V35.2869C200.992 33.0729 200.415 31.3428 199.262 30.0966C198.109 28.8371 196.524 28.2074 194.509 28.2074C193.13 28.2074 191.904 28.5057 190.83 29.1023C189.77 29.6989 188.928 30.5739 188.305 31.7273C187.695 32.8674 187.39 34.2462 187.39 35.8636ZM226.347 54.5966C223.881 54.5966 221.681 53.9669 219.745 52.7074C217.823 51.4347 216.311 49.625 215.211 47.2784C214.124 44.9186 213.58 42.0881 213.58 38.7869C213.58 35.4858 214.13 32.6619 215.231 30.3153C216.344 27.9687 217.869 26.1723 219.805 24.9261C221.74 23.6799 223.934 23.0568 226.387 23.0568C228.283 23.0568 229.808 23.375 230.961 24.0114C232.128 24.6345 233.029 25.3636 233.665 26.1989C234.315 27.0341 234.819 27.7699 235.177 28.4062H235.535V13.2727H241.481V54H235.674V49.2472H235.177C234.819 49.8968 234.302 50.6392 233.626 51.4744C232.963 52.3097 232.048 53.0388 230.881 53.6619C229.715 54.285 228.203 54.5966 226.347 54.5966ZM227.66 49.5256C229.37 49.5256 230.815 49.0748 231.995 48.1733C233.188 47.2585 234.09 45.9924 234.7 44.375C235.323 42.7576 235.634 40.875 235.634 38.7273C235.634 36.6061 235.329 34.75 234.719 33.1591C234.11 31.5682 233.215 30.3286 232.035 29.4403C230.855 28.5521 229.397 28.108 227.66 28.108C225.87 28.108 224.379 28.572 223.185 29.5C221.992 30.428 221.091 31.6941 220.481 33.2983C219.884 34.9025 219.586 36.7121 219.586 38.7273C219.586 40.7689 219.891 42.6051 220.501 44.2358C221.111 45.8665 222.012 47.1591 223.205 48.1136C224.412 49.0549 225.897 49.5256 227.66 49.5256ZM258.857 54.6761C256.921 54.6761 255.171 54.3182 253.607 53.6023C252.042 52.8731 250.803 51.8191 249.888 50.4403C248.986 49.0616 248.535 47.3712 248.535 45.3693C248.535 43.6458 248.867 42.2273 249.53 41.1136C250.193 40 251.088 39.1184 252.214 38.4688C253.341 37.8191 254.601 37.3286 255.993 36.9972C257.385 36.6657 258.803 36.4138 260.249 36.2415C262.078 36.0294 263.563 35.857 264.703 35.7244C265.843 35.5786 266.672 35.3466 267.189 35.0284C267.706 34.7102 267.964 34.1932 267.964 33.4773V33.3381C267.964 31.6013 267.474 30.2557 266.493 29.3011C265.525 28.3466 264.08 27.8693 262.158 27.8693C260.156 27.8693 258.578 28.3134 257.425 29.2017C256.285 30.0767 255.496 31.0511 255.058 32.125L249.47 30.8523C250.133 28.9962 251.101 27.4981 252.374 26.358C253.66 25.2045 255.138 24.3693 256.808 23.8523C258.479 23.322 260.235 23.0568 262.078 23.0568C263.298 23.0568 264.59 23.2027 265.956 23.4943C267.335 23.7727 268.621 24.2898 269.814 25.0455C271.02 25.8011 272.008 26.8816 272.777 28.2869C273.546 29.679 273.93 31.4886 273.93 33.7159V54H268.124V49.8239H267.885C267.5 50.5928 266.924 51.3485 266.155 52.0909C265.386 52.8333 264.398 53.4498 263.192 53.9403C261.985 54.4309 260.54 54.6761 258.857 54.6761ZM260.149 49.9034C261.793 49.9034 263.198 49.5786 264.365 48.929C265.545 48.2794 266.44 47.4309 267.05 46.3835C267.673 45.3229 267.984 44.1894 267.984 42.983V39.0455C267.772 39.2576 267.361 39.4564 266.751 39.642C266.155 39.8144 265.472 39.9669 264.703 40.0994C263.934 40.2187 263.185 40.3314 262.456 40.4375C261.727 40.5303 261.117 40.6098 260.626 40.6761C259.473 40.822 258.419 41.0672 257.464 41.4119C256.523 41.7566 255.768 42.2538 255.197 42.9034C254.641 43.5398 254.362 44.3883 254.362 45.4489C254.362 46.9205 254.906 48.0341 255.993 48.7898C257.08 49.5322 258.465 49.9034 260.149 49.9034ZM296.109 23.4545V28.2273H279.424V23.4545H296.109ZM283.898 16.1364H289.844V45.0312C289.844 46.1847 290.017 47.053 290.361 47.6364C290.706 48.2064 291.15 48.5975 291.694 48.8097C292.251 49.0085 292.854 49.108 293.504 49.108C293.981 49.108 294.398 49.0748 294.756 49.0085C295.114 48.9422 295.393 48.8892 295.592 48.8494L296.665 53.7614C296.321 53.8939 295.83 54.0265 295.194 54.1591C294.558 54.3049 293.762 54.3845 292.808 54.3977C291.243 54.4242 289.785 54.1458 288.433 53.5625C287.08 52.9792 285.986 52.0777 285.151 50.858C284.316 49.6383 283.898 48.107 283.898 46.2642V16.1364ZM302.686 54V23.4545H308.632V54H302.686ZM305.689 18.7415C304.655 18.7415 303.767 18.3968 303.024 17.7074C302.295 17.0047 301.93 16.1695 301.93 15.2017C301.93 14.2206 302.295 13.3854 303.024 12.696C303.767 11.9934 304.655 11.642 305.689 11.642C306.723 11.642 307.605 11.9934 308.334 12.696C309.076 13.3854 309.447 14.2206 309.447 15.2017C309.447 16.1695 309.076 17.0047 308.334 17.7074C307.605 18.3968 306.723 18.7415 305.689 18.7415ZM329.498 54.6165C326.634 54.6165 324.135 53.9602 322.001 52.6477C319.866 51.3352 318.209 49.4991 317.029 47.1392C315.849 44.7794 315.259 42.0218 315.259 38.8665C315.259 35.6979 315.849 32.9271 317.029 30.554C318.209 28.1809 319.866 26.3381 322.001 25.0256C324.135 23.7131 326.634 23.0568 329.498 23.0568C332.361 23.0568 334.861 23.7131 336.995 25.0256C339.129 26.3381 340.787 28.1809 341.967 30.554C343.147 32.9271 343.736 35.6979 343.736 38.8665C343.736 42.0218 343.147 44.7794 341.967 47.1392C340.787 49.4991 339.129 51.3352 336.995 52.6477C334.861 53.9602 332.361 54.6165 329.498 54.6165ZM329.518 49.625C331.374 49.625 332.912 49.1345 334.131 48.1534C335.351 47.1723 336.253 45.8665 336.836 44.2358C337.433 42.6051 337.731 40.8087 337.731 38.8466C337.731 36.8977 337.433 35.108 336.836 33.4773C336.253 31.8333 335.351 30.5142 334.131 29.5199C332.912 28.5256 331.374 28.0284 329.518 28.0284C327.648 28.0284 326.097 28.5256 324.864 29.5199C323.645 30.5142 322.736 31.8333 322.14 33.4773C321.557 35.108 321.265 36.8977 321.265 38.8466C321.265 40.8087 321.557 42.6051 322.14 44.2358C322.736 45.8665 323.645 47.1723 324.864 48.1534C326.097 49.1345 327.648 49.625 329.518 49.625ZM356.32 35.8636V54H350.374V23.4545H356.081V28.4261H356.459C357.161 26.8087 358.262 25.5095 359.76 24.5284C361.271 23.5473 363.174 23.0568 365.467 23.0568C367.549 23.0568 369.372 23.4943 370.936 24.3693C372.5 25.2311 373.714 26.517 374.575 28.2273C375.437 29.9375 375.868 32.0521 375.868 34.571V54H369.922V35.2869C369.922 33.0729 369.345 31.3428 368.192 30.0966C367.038 28.8371 365.454 28.2074 363.439 28.2074C362.06 28.2074 360.834 28.5057 359.76 29.1023C358.699 29.6989 357.857 30.5739 357.234 31.7273C356.625 32.8674 356.32 34.2462 356.32 35.8636ZM399.14 54V13.2727H405.285V30.9716H425.589V13.2727H431.754V54H425.589V36.2415H405.285V54H399.14ZM440.702 54V13.2727H455.219C458.375 13.2727 460.993 13.8163 463.075 14.9034C465.169 15.9905 466.734 17.4953 467.768 19.4176C468.802 21.3267 469.319 23.5341 469.319 26.0398C469.319 28.5322 468.795 30.7263 467.748 32.6222C466.714 34.5047 465.149 35.9697 463.055 37.017C460.973 38.0644 458.355 38.5881 455.2 38.5881H444.202V33.2983H454.643C456.631 33.2983 458.249 33.0133 459.495 32.4432C460.754 31.8731 461.676 31.0445 462.259 29.9574C462.843 28.8703 463.134 27.5644 463.134 26.0398C463.134 24.5019 462.836 23.1695 462.239 22.0426C461.656 20.9157 460.735 20.054 459.475 19.4574C458.229 18.8475 456.592 18.5426 454.563 18.5426H446.847V54H440.702ZM460.808 35.625L470.87 54H463.87L454.006 35.625H460.808Z" fill="white"/>
</svg>
