<svg width="416" height="56" viewBox="0 0 416 56" fill="none" xmlns="http://www.w3.org/2000/svg">
<path fill-rule="evenodd" clip-rule="evenodd" d="M16.8174 21.4381H21.2859V17H16.8174V21.4381Z" fill="white"/>
<path fill-rule="evenodd" clip-rule="evenodd" d="M25.7646 21.3691H30.2352V16.9309H25.7646V21.3691Z" fill="white"/>
<path fill-rule="evenodd" clip-rule="evenodd" d="M34.8125 21.3691H39.281V16.9309H34.8125V21.3691Z" fill="white"/>
<path fill-rule="evenodd" clip-rule="evenodd" d="M16.8174 30.219H21.2859V25.7809H16.8174V30.219Z" fill="white"/>
<path fill-rule="evenodd" clip-rule="evenodd" d="M25.7646 30.219H30.2352V25.7809H25.7646V30.219Z" fill="white"/>
<path fill-rule="evenodd" clip-rule="evenodd" d="M34.8125 30.219H39.281V25.7809H34.8125V30.219Z" fill="white"/>
<path fill-rule="evenodd" clip-rule="evenodd" d="M16.8174 39.0954H21.2859V34.6572H16.8174V39.0954Z" fill="white"/>
<path fill-rule="evenodd" clip-rule="evenodd" d="M25.7646 39.0954H30.2352V34.6572H25.7646V39.0954Z" fill="white"/>
<path fill-rule="evenodd" clip-rule="evenodd" d="M34.8125 39.0954H39.281V34.6572H34.8125V39.0954Z" fill="white"/>
<path fill-rule="evenodd" clip-rule="evenodd" d="M8 48H12.4685V30.2454H8V48Z" fill="white"/>
<path fill-rule="evenodd" clip-rule="evenodd" d="M12.4688 47.9999H21.4078V43.5618H12.4688V47.9999Z" fill="white"/>
<path fill-rule="evenodd" clip-rule="evenodd" d="M43.5312 25.7526H47.9997V8H43.5312V25.7526Z" fill="white"/>
<path fill-rule="evenodd" clip-rule="evenodd" d="M34.5928 12.4381H43.5318V8H34.5928V12.4381Z" fill="white"/>
<path fill-rule="evenodd" clip-rule="evenodd" d="M89.703 39.5839V35.2499H76.8485V16.3329H72V39.5839H89.703Z" fill="white"/>
<path fill-rule="evenodd" clip-rule="evenodd" d="M95.4541 39.5839H100.299V16.3329H95.4541V39.5839Z" fill="white"/>
<path fill-rule="evenodd" clip-rule="evenodd" d="M125.977 20.6669V16.3329H106.051V20.6669H113.591V39.5839H118.437V20.6669H125.977Z" fill="white"/>
<path fill-rule="evenodd" clip-rule="evenodd" d="M136.576 25.6999V16.3329H131.728V39.5839H136.576V30.0172H148.284V39.5839H153.133V16.3329H148.284V25.6999H136.576Z" fill="white"/>
<path fill-rule="evenodd" clip-rule="evenodd" d="M161.088 39.5839H165.936V16.3329H161.088V39.5839Z" fill="white"/>
<path fill-rule="evenodd" clip-rule="evenodd" d="M194.566 30.3001V16.3329H189.701V30.0671C189.701 33.8718 187.424 35.5662 184.089 35.5662C180.755 35.5662 178.478 33.8718 178.478 30.0671V16.3329H173.613V30.3001C173.613 36.7279 177.904 40 184.089 40C190.274 40 194.566 36.7279 194.566 30.3001Z" fill="white"/>
<path fill-rule="evenodd" clip-rule="evenodd" d="M229.085 39.5839V16.3329H221.981L215.673 32.0277L209.349 16.3329H202.245V39.5839H207.091V22.1615L213.101 37.3437H218.229L224.239 22.0283V39.5839H229.085Z" fill="white"/>
<path fill-rule="evenodd" clip-rule="evenodd" d="M257.977 16.3329H248.821V39.5839H257.977C265.916 39.5839 270.955 35.0502 270.955 27.9601C270.955 20.8666 265.916 16.3329 257.977 16.3329ZM251.618 18.856H257.977C264.561 18.856 268.019 22.461 268.019 27.9601C268.019 33.4058 264.561 37.0608 257.977 37.0608H251.618V18.856Z" fill="white"/>
<path fill-rule="evenodd" clip-rule="evenodd" d="M279.015 39.5839H281.814V16.3329H279.015V39.5839Z" fill="white"/>
<path fill-rule="evenodd" clip-rule="evenodd" d="M302.418 16C295.241 16 289.854 20.9664 289.854 27.96C289.854 35.4829 295.903 39.9001 302.294 39.9001C309.61 39.9001 314.11 34.6208 314.11 27.8435C314.11 27.6272 314.091 27.4108 314.075 27.1612H303.475V29.6544H311.051C310.633 34.4211 307.421 37.3437 302.294 37.3437C296.961 37.3437 292.793 33.5556 292.793 27.96C292.793 22.3612 296.961 18.5764 302.418 18.5764C305.458 18.5764 308.045 19.7881 309.784 21.7986L311.849 19.9046C309.61 17.4447 306.307 16 302.418 16Z" fill="white"/>
<path fill-rule="evenodd" clip-rule="evenodd" d="M322.17 39.5839H324.966V16.3329H322.17V39.5839Z" fill="white"/>
<path fill-rule="evenodd" clip-rule="evenodd" d="M351.271 18.856V16.3329H331.604V18.856H340.047V39.5839H342.828V18.856H351.271Z" fill="white"/>
<path fill-rule="evenodd" clip-rule="evenodd" d="M376.565 39.5839L366.577 16.3329H363.118L353.13 39.5839H356.031L358.773 33.1096H370.814L373.575 39.5839H376.565ZM359.853 30.5831L364.803 18.9726L369.753 30.5831H359.853Z" fill="white"/>
<path fill-rule="evenodd" clip-rule="evenodd" d="M400 39.5839V37.0608H385.929V16.3329H383.133V39.5839H400Z" fill="white"/>
</svg>
