<svg width="384" height="88" viewBox="0 0 384 88" fill="none" xmlns="http://www.w3.org/2000/svg">
<path d="M82.8525 66.9489V1.85559H106.751C111.946 1.85559 116.251 2.74626 119.64 4.50286C123.03 6.25947 125.553 8.65933 127.21 11.653C128.893 14.6714 129.709 17.9866 129.709 21.6483C129.709 25.6068 128.67 29.2438 126.592 32.5343C124.514 35.8248 121.273 38.2 116.869 39.6844L130.352 66.9241H116.696L104.599 41.2678H94.7522V66.9241H82.8525V66.9489ZM94.7522 32.5343H106.009C109.967 32.5343 112.886 31.5694 114.742 29.6396C116.597 27.7098 117.537 25.1863 117.537 22.0194C117.537 18.8526 116.622 16.4527 114.791 14.5724C112.96 12.7168 109.992 11.7767 105.91 11.7767H94.7522V32.5095V32.5343Z" fill="black"/>
<path d="M155.464 68.0622C150.813 68.0622 146.681 67.0726 143.094 65.0933C139.507 63.114 136.686 60.3183 134.633 56.7309C132.58 53.1434 131.565 48.987 131.565 44.2615C131.565 39.536 132.58 35.231 134.584 31.5199C136.587 27.8088 139.383 24.9141 142.946 22.8359C146.508 20.7576 150.714 19.7185 155.538 19.7185C160.065 19.7185 164.073 20.7081 167.537 22.6874C171 24.6667 173.722 27.3882 175.676 30.8272C177.63 34.2661 178.595 38.101 178.595 42.3069C178.595 42.9997 178.595 43.6924 178.546 44.4346C178.496 45.1769 178.472 45.9438 178.397 46.7603H143.341C143.589 50.3477 144.85 53.1682 147.102 55.2217C149.353 57.2752 152.099 58.2895 155.34 58.2895C157.765 58.2895 159.793 57.7453 161.426 56.6567C163.059 55.5681 164.296 54.1578 165.087 52.426H177.185C176.319 55.3454 174.884 57.9927 172.856 60.3678C170.852 62.7429 168.353 64.6232 165.409 65.984C162.465 67.3447 159.125 68.0375 155.414 68.0375L155.464 68.0622ZM155.563 29.3675C152.644 29.3675 150.071 30.1839 147.844 31.8415C145.618 33.4744 144.183 35.9733 143.564 39.338H166.522C166.324 36.2949 165.211 33.895 163.182 32.089C161.154 30.2829 158.606 29.3922 155.563 29.3922V29.3675Z" fill="black"/>
<path d="M184.013 87.3848V20.8071H194.601L195.912 27.4129C197.397 25.3594 199.376 23.5781 201.825 22.0194C204.274 20.4607 207.441 19.6937 211.35 19.6937C215.679 19.6937 219.563 20.7576 222.977 22.8606C226.392 24.9635 229.088 27.8582 231.067 31.5199C233.046 35.1815 234.036 39.338 234.036 43.9893C234.036 48.6406 233.046 52.7723 231.067 56.4092C229.088 60.0461 226.392 62.8913 222.977 64.9696C219.563 67.0478 215.704 68.0869 211.35 68.0869C207.886 68.0869 204.843 67.4437 202.246 66.1324C199.648 64.8211 197.545 62.9903 195.912 60.6399V87.4095H184.013V87.3848ZM208.826 57.6463C212.612 57.6463 215.729 56.3845 218.227 53.8362C220.701 51.2878 221.938 48.022 221.938 43.9893C221.938 39.9565 220.701 36.6412 218.227 34.0434C215.753 31.4457 212.612 30.1344 208.826 30.1344C205.041 30.1344 201.825 31.4209 199.401 33.994C196.951 36.567 195.739 39.8823 195.739 43.8903C195.739 47.8983 196.951 51.2136 199.401 53.7867C201.85 56.3597 204.992 57.6463 208.826 57.6463Z" fill="black"/>
<path d="M239.974 66.9488V0H251.873V66.9488H239.974Z" fill="black"/>
<path d="M265.827 13.657C263.649 13.657 261.868 13.0137 260.483 11.7024C259.097 10.3912 258.38 8.75827 258.38 6.779C258.38 4.79973 259.073 3.16684 260.483 1.90506C261.868 0.643274 263.649 0 265.827 0C268.004 0 269.785 0.643274 271.17 1.90506C272.556 3.16684 273.273 4.79973 273.273 6.779C273.273 8.75827 272.58 10.4159 271.17 11.7024C269.785 13.0137 268.004 13.657 265.827 13.657ZM259.864 66.9488V20.8318H271.764V66.9488H259.864Z" fill="black"/>
<path d="M279.854 66.9489V1.85559H291.754V28.1799L315.825 1.85559H330.52L306.523 27.7098L331.164 66.9489H316.567L297.963 36.8145L291.729 43.5935V66.9241H279.829L279.854 66.9489Z" fill="black"/>
<path d="M340.862 13.657C338.685 13.657 336.903 13.0137 335.518 11.7024C334.133 10.3912 333.415 8.75827 333.415 6.779C333.415 4.79973 334.108 3.16684 335.518 1.90506C336.903 0.643274 338.685 0 340.862 0C343.039 0 344.82 0.643274 346.205 1.90506C347.591 3.16684 348.308 4.79973 348.308 6.779C348.308 8.75827 347.616 10.4159 346.205 11.7024C344.82 13.0137 343.039 13.657 340.862 13.657ZM334.9 66.9488V20.8318H346.799V66.9488H334.9Z" fill="black"/>
<path d="M375.15 66.9489C370.326 66.9489 366.442 65.7613 363.523 63.4109C360.604 61.0606 359.144 56.8793 359.144 50.8673V30.7777H351.252V20.8319H359.144L360.529 8.46143H371.044V20.8319H383.512V30.7777H371.044V50.9663C371.044 53.193 371.514 54.7269 372.479 55.5681C373.443 56.4093 375.101 56.8299 377.451 56.8299H383.215V66.9736H375.126L375.15 66.9489Z" fill="black"/>
<path d="M64.8678 16.3043L40.7715 30.4066C39.9303 30.7282 39.3613 31.5446 39.3613 32.4601V36.1959C39.3613 37.4082 38.3717 38.3979 37.1595 38.3979H34.1413C32.9291 38.3979 31.9395 39.3875 31.9395 40.5998V64.6974C31.9395 65.9097 32.9291 66.8994 34.1413 66.8994H53.5124C55.071 66.8994 56.1594 65.3159 55.5657 63.8562L42.2064 42.9997C41.6127 41.54 42.6765 39.9565 44.2598 39.9565H65.709C66.9212 39.9565 67.9108 38.9669 67.9108 37.7546V18.333C67.9108 16.7743 66.3522 15.7105 64.8925 16.2795L64.8678 16.3043Z" fill="url(#paint0_linear_2196_432)"/>
<path d="M3.04291 50.6199L27.1392 36.5176C27.9803 36.196 28.5494 35.3795 28.5494 34.4641V30.7282C28.5494 29.5159 29.539 28.5263 30.7512 28.5263H33.7694C34.9816 28.5263 35.9712 27.5366 35.9712 26.3243V2.22672C35.9712 1.01441 34.9816 0.0247803 33.7694 0.0247803H14.3984C12.8398 0.0247803 11.7513 1.60819 12.345 3.0679L25.7044 23.9245C26.2982 25.3842 25.2343 26.9676 23.651 26.9676H2.20185C0.989617 26.9676 0 27.9572 0 29.1695V48.5911C0 50.1498 1.55852 51.2137 3.01815 50.6446L3.04291 50.6199Z" fill="url(#paint1_linear_2196_432)"/>
<defs>
<linearGradient id="paint0_linear_2196_432" x1="49.9251" y1="66.8994" x2="49.9251" y2="16.1241" gradientUnits="userSpaceOnUse">
<stop offset="0.29" stop-color="#D72638"/>
<stop offset="1" stop-color="#F4C300"/>
</linearGradient>
<linearGradient id="paint1_linear_2196_432" x1="17.9856" y1="50.8" x2="17.9856" y2="0.0247803" gradientUnits="userSpaceOnUse">
<stop offset="0.29" stop-color="#D72638"/>
<stop offset="1" stop-color="#F4C300"/>
</linearGradient>
</defs>
</svg>
