<svg width="103" height="32" viewBox="0 0 103 32" fill="none" xmlns="http://www.w3.org/2000/svg">
<g clip-path="url(#clip0_1336_3430)">
<path d="M31.2122 20.2238C31.2122 20.4448 31.1972 20.6155 31.167 20.7361C31.1419 20.8516 31.1068 20.9345 31.0616 20.9846C31.0164 21.0298 30.9485 21.0726 30.8581 21.1128C30.7728 21.1479 30.6698 21.178 30.5493 21.2032C30.4338 21.2333 30.3057 21.2559 30.1651 21.2709C30.0294 21.286 29.8913 21.2936 29.7508 21.2936C29.3741 21.2936 29.0476 21.2458 28.7714 21.1504C28.4952 21.055 28.2666 20.9093 28.0858 20.7135C27.905 20.5126 27.772 20.2614 27.6865 19.9601C27.6012 19.6588 27.5585 19.3022 27.5585 18.8904V15.4476H26.7524C26.657 15.4476 26.5841 15.3898 26.534 15.2743C26.4837 15.1537 26.4586 14.9554 26.4586 14.6792C26.4586 14.5335 26.4636 14.4105 26.4737 14.31C26.4888 14.2096 26.5088 14.1317 26.534 14.0765C26.559 14.0162 26.5892 13.9735 26.6244 13.9484C26.6645 13.9233 26.7097 13.9108 26.76 13.9108H27.5585V12.4116C27.5585 12.3613 27.571 12.3161 27.5961 12.276C27.6263 12.2358 27.6765 12.2032 27.7468 12.178C27.8222 12.1479 27.9201 12.1278 28.0406 12.1178C28.1662 12.1027 28.3194 12.0952 28.5002 12.0952C28.686 12.0952 28.8392 12.1027 28.9597 12.1178C29.0853 12.1278 29.1832 12.1479 29.2535 12.178C29.3238 12.2032 29.3741 12.2358 29.4042 12.276C29.4343 12.3161 29.4494 12.3613 29.4494 12.4116V13.9108H30.9109C30.9611 13.9108 31.0038 13.9233 31.0389 13.9484C31.0792 13.9735 31.1118 14.0162 31.1369 14.0765C31.162 14.1317 31.1796 14.2096 31.1896 14.31C31.2047 14.4105 31.2122 14.5335 31.2122 14.6792C31.2122 14.9554 31.1871 15.1537 31.1369 15.2743C31.0866 15.3898 31.0138 15.4476 30.9184 15.4476H29.4494V18.6041C29.4494 18.9707 29.5072 19.2469 29.6226 19.4328C29.7382 19.6136 29.9441 19.704 30.2404 19.704C30.3409 19.704 30.4313 19.6965 30.5116 19.6814C30.592 19.6613 30.6623 19.6412 30.7225 19.6211C30.7878 19.596 30.8406 19.5759 30.8808 19.5608C30.926 19.5408 30.9661 19.5307 31.0013 19.5307C31.0314 19.5307 31.059 19.5408 31.0841 19.5608C31.1143 19.5759 31.1369 19.6111 31.152 19.6663C31.167 19.7165 31.1796 19.7869 31.1896 19.8773C31.2047 19.9677 31.2122 20.0832 31.2122 20.2238ZM38.4666 20.9093C38.4666 20.9797 38.4416 21.0349 38.3913 21.0751C38.3411 21.1153 38.2608 21.1429 38.1502 21.158C38.0448 21.178 37.8866 21.1881 37.6757 21.1881C37.4497 21.1881 37.2839 21.178 37.1784 21.158C37.078 21.1429 37.0052 21.1153 36.96 21.0751C36.9198 21.0349 36.8997 20.9797 36.8997 20.9093V20.3745C36.6235 20.6708 36.307 20.9018 35.9505 21.0676C35.5989 21.2333 35.2072 21.3161 34.7753 21.3161C34.4187 21.3161 34.0897 21.2684 33.7884 21.173C33.4921 21.0826 33.2334 20.947 33.0124 20.7662C32.7965 20.5804 32.6282 20.3519 32.5077 20.0807C32.3872 19.8095 32.3269 19.493 32.3269 19.1314C32.3269 18.7397 32.4022 18.4007 32.5529 18.1144C32.7086 17.8231 32.9371 17.5845 33.2384 17.3988C33.5448 17.2079 33.924 17.0673 34.376 16.9769C34.828 16.8865 35.3528 16.8413 35.9505 16.8413H36.6059V16.4345C36.6059 16.2235 36.5833 16.0402 36.5381 15.8845C36.4979 15.7238 36.4276 15.5907 36.3272 15.4852C36.2317 15.3798 36.1012 15.3019 35.9354 15.2517C35.7747 15.2014 35.5738 15.1764 35.3328 15.1764C35.0164 15.1764 34.7326 15.2115 34.4814 15.2819C34.2354 15.3521 34.0169 15.43 33.826 15.5154C33.6352 15.6008 33.4745 15.6786 33.3439 15.7489C33.2184 15.8192 33.1154 15.8544 33.035 15.8544C32.9798 15.8544 32.9296 15.8368 32.8844 15.8016C32.8442 15.7665 32.809 15.7163 32.7789 15.651C32.7538 15.5857 32.7337 15.5053 32.7186 15.4099C32.7036 15.3145 32.696 15.209 32.696 15.0935C32.696 14.9378 32.7086 14.8148 32.7337 14.7244C32.7588 14.634 32.8065 14.5536 32.8768 14.4833C32.9472 14.408 33.0702 14.3276 33.246 14.2422C33.4217 14.1518 33.6277 14.0689 33.8637 13.9936C34.0998 13.9183 34.3559 13.858 34.6321 13.8128C34.9134 13.7626 35.2022 13.7375 35.4985 13.7375C36.0258 13.7375 36.4753 13.7902 36.847 13.8957C37.2237 13.9961 37.5325 14.1543 37.7736 14.3702C38.0146 14.5812 38.1904 14.8549 38.3009 15.1914C38.4114 15.5279 38.4666 15.9272 38.4666 16.3893V20.9093ZM36.6059 18.0316H35.8827C35.5763 18.0316 35.3152 18.0541 35.0992 18.0993C34.8832 18.1445 34.7074 18.2124 34.5718 18.3028C34.4362 18.3932 34.3358 18.5036 34.2705 18.6343C34.2102 18.7598 34.1801 18.9055 34.1801 19.0712C34.1801 19.3524 34.268 19.5734 34.4438 19.7341C34.6246 19.8948 34.8732 19.9752 35.1896 19.9752C35.4558 19.9752 35.6994 19.9074 35.9204 19.7718C36.1464 19.6362 36.3749 19.4378 36.6059 19.1767V18.0316ZM47.4388 17.4364C47.4388 18.0341 47.3734 18.5714 47.2429 19.0486C47.1123 19.5257 46.924 19.9325 46.6778 20.269C46.4318 20.6055 46.1279 20.8641 45.7663 21.0449C45.4097 21.2257 45.0029 21.3161 44.5459 21.3161C44.3199 21.3161 44.1089 21.2936 43.9131 21.2484C43.7172 21.2082 43.5289 21.1404 43.3481 21.0449C43.1723 20.9495 42.9965 20.829 42.8207 20.6833C42.65 20.5377 42.4742 20.3619 42.2934 20.156V20.8868C42.2934 20.942 42.2783 20.9897 42.2482 21.0298C42.223 21.065 42.1778 21.0952 42.1126 21.1202C42.0523 21.1454 41.9694 21.163 41.864 21.173C41.7585 21.183 41.6304 21.1881 41.4798 21.1881C41.3241 21.1881 41.1935 21.183 41.088 21.173C40.9876 21.163 40.9047 21.1454 40.8394 21.1202C40.7792 21.0952 40.7365 21.065 40.7113 21.0298C40.6862 20.9897 40.6737 20.942 40.6737 20.8868V10.9802C40.6737 10.93 40.6888 10.8848 40.7189 10.8446C40.749 10.8044 40.7992 10.7718 40.8696 10.7467C40.9449 10.7165 41.0428 10.694 41.1633 10.6789C41.2839 10.6638 41.437 10.6562 41.6229 10.6562C41.8087 10.6562 41.9619 10.6638 42.0824 10.6789C42.203 10.694 42.2984 10.7165 42.3687 10.7467C42.4441 10.7718 42.4968 10.8044 42.5269 10.8446C42.557 10.8848 42.5721 10.93 42.5721 10.9802V14.6942C42.7429 14.5235 42.9136 14.3778 43.0844 14.2573C43.2552 14.1368 43.4259 14.0388 43.5966 13.9635C43.7674 13.8831 43.9432 13.8253 44.124 13.7902C44.3048 13.755 44.4957 13.7375 44.6965 13.7375C45.1938 13.7375 45.6156 13.8379 45.9622 14.0388C46.3087 14.2346 46.59 14.5009 46.806 14.8373C47.0269 15.1738 47.1876 15.5681 47.2881 16.0201C47.3885 16.4671 47.4388 16.9392 47.4388 17.4364ZM45.4725 17.572C45.4725 17.2857 45.4499 17.0095 45.4047 16.7433C45.3645 16.4772 45.2917 16.2411 45.1862 16.0352C45.0808 15.8293 44.9426 15.666 44.7719 15.5455C44.6061 15.42 44.3952 15.3572 44.1391 15.3572C44.0135 15.3572 43.8905 15.3748 43.77 15.4099C43.6494 15.4451 43.5238 15.5053 43.3933 15.5907C43.2677 15.6761 43.1371 15.7866 43.0015 15.9222C42.8659 16.0578 42.7228 16.226 42.5721 16.4269V18.6568C42.8383 18.9984 43.0919 19.2595 43.333 19.4403C43.5791 19.6161 43.8352 19.704 44.1014 19.704C44.3475 19.704 44.556 19.6412 44.7267 19.5156C44.8974 19.3901 45.0381 19.2269 45.1486 19.026C45.2641 18.825 45.3469 18.5965 45.3972 18.3404C45.4474 18.0843 45.4725 17.8281 45.4725 17.572ZM55.6424 20.8868C55.6424 20.9369 55.6298 20.9822 55.6048 21.0224C55.5796 21.0575 55.5344 21.0876 55.4692 21.1128C55.4089 21.1378 55.326 21.1554 55.2205 21.1655C55.1201 21.1805 54.992 21.1881 54.8363 21.1881C54.6706 21.1881 54.535 21.1805 54.4295 21.1655C54.329 21.1554 54.2487 21.1378 54.1884 21.1128C54.1282 21.0876 54.0855 21.0575 54.0604 21.0224C54.0353 20.9822 54.0227 20.9369 54.0227 20.8868V20.1108C53.651 20.5126 53.2718 20.8139 52.8852 21.0148C52.5034 21.2157 52.1067 21.3161 51.6949 21.3161C51.2328 21.3161 50.8436 21.2408 50.5272 21.0901C50.2158 20.9394 49.9622 20.7336 49.7663 20.4724C49.5754 20.2112 49.4373 19.9099 49.352 19.5684C49.2716 19.2218 49.2314 18.7924 49.2314 18.2801V14.1669C49.2314 14.1167 49.244 14.074 49.2691 14.0388C49.2992 13.9987 49.3494 13.966 49.4197 13.9409C49.4951 13.9157 49.593 13.8982 49.7136 13.8881C49.8391 13.873 49.9923 13.8655 50.1731 13.8655C50.3589 13.8655 50.5121 13.873 50.6326 13.8881C50.7532 13.8982 50.8486 13.9157 50.9189 13.9409C50.9942 13.966 51.047 13.9987 51.0771 14.0388C51.1073 14.074 51.1223 14.1167 51.1223 14.1669V17.9637C51.1223 18.3153 51.1449 18.584 51.1901 18.7698C51.2353 18.9557 51.3031 19.1164 51.3935 19.252C51.4889 19.3825 51.607 19.4855 51.7476 19.5608C51.8932 19.6312 52.0615 19.6663 52.2524 19.6663C52.4934 19.6663 52.7345 19.5784 52.9756 19.4027C53.2217 19.2269 53.4828 18.9707 53.759 18.6343V14.1669C53.759 14.1167 53.7716 14.074 53.7967 14.0388C53.8268 13.9987 53.877 13.966 53.9474 13.9409C54.0227 13.9157 54.1206 13.8982 54.2412 13.8881C54.3617 13.873 54.5149 13.8655 54.7007 13.8655C54.8865 13.8655 55.0397 13.873 55.1602 13.8881C55.2808 13.8982 55.3762 13.9157 55.4465 13.9409C55.5169 13.966 55.567 13.9987 55.5972 14.0388C55.6273 14.074 55.6424 14.1167 55.6424 14.1669V20.8868ZM59.7628 20.8868C59.7628 20.9369 59.7479 20.9822 59.7176 21.0224C59.6873 21.0575 59.6348 21.0876 59.5593 21.1128C59.489 21.1378 59.3936 21.1554 59.273 21.1655C59.1525 21.1805 58.9993 21.1881 58.8136 21.1881C58.6279 21.1881 58.4748 21.1805 58.3542 21.1655C58.2336 21.1554 58.1359 21.1378 58.0605 21.1128C57.9902 21.0876 57.9399 21.0575 57.9096 21.0224C57.8793 20.9822 57.8645 20.9369 57.8645 20.8868V10.9802C57.8645 10.93 57.8793 10.8848 57.9096 10.8446C57.9399 10.8044 57.9902 10.7718 58.0605 10.7467C58.1359 10.7165 58.2336 10.694 58.3542 10.6789C58.4748 10.6638 58.6279 10.6562 58.8136 10.6562C58.9993 10.6562 59.1525 10.6638 59.273 10.6789C59.3936 10.694 59.489 10.7165 59.5593 10.7467C59.6348 10.7718 59.6873 10.8044 59.7176 10.8446C59.7479 10.8848 59.7628 10.93 59.7628 10.9802V20.8868ZM68.1776 17.3309C68.1776 17.562 68.125 17.7327 68.0193 17.8432C67.9193 17.9537 67.7788 18.0089 67.5976 18.0089H63.5073C63.5073 18.2952 63.5399 18.5564 63.605 18.7924C63.6753 19.0234 63.7833 19.2218 63.929 19.3876C64.0793 19.5483 64.2702 19.6713 64.5016 19.7567C64.7376 19.8421 65.0188 19.8848 65.345 19.8848C65.6765 19.8848 65.9679 19.8622 66.2193 19.817C66.4702 19.7668 66.6862 19.714 66.8668 19.6588C67.053 19.5985 67.2062 19.5458 67.3268 19.5006C67.4473 19.4504 67.545 19.4252 67.6205 19.4252C67.6656 19.4252 67.7033 19.4353 67.733 19.4554C67.7633 19.4704 67.7885 19.5006 67.8085 19.5458C67.8285 19.591 67.841 19.6563 67.8462 19.7417C67.8565 19.822 67.8616 19.925 67.8616 20.0505C67.8616 20.161 67.8588 20.2564 67.8536 20.3368C67.849 20.4121 67.841 20.4774 67.8313 20.5326C67.821 20.5879 67.8062 20.6356 67.7862 20.6758C67.7662 20.7109 67.7382 20.7461 67.7033 20.7813C67.673 20.8164 67.585 20.8641 67.4393 20.9244C67.2936 20.9846 67.1079 21.0449 66.8822 21.1052C66.6559 21.1605 66.3976 21.2082 66.1062 21.2484C65.8148 21.2936 65.5033 21.3161 65.1719 21.3161C64.5742 21.3161 64.0496 21.2408 63.5976 21.0901C63.1502 20.9394 62.7765 20.7109 62.4748 20.4046C62.1736 20.0982 61.9473 19.7115 61.797 19.2444C61.6513 18.7774 61.5788 18.2299 61.5788 17.6021C61.5788 17.0045 61.6565 16.4671 61.8119 15.99C61.9679 15.5079 62.1936 15.1011 62.4902 14.7696C62.7862 14.4331 63.1456 14.1769 63.5673 14.0012C63.9942 13.8253 64.4736 13.7375 65.0062 13.7375C65.5685 13.7375 66.0485 13.8203 66.445 13.9861C66.8468 14.1518 67.1759 14.3828 67.4319 14.6792C67.6879 14.9704 67.8765 15.317 67.997 15.7188C68.1176 16.1205 68.1776 16.5575 68.1776 17.0296V17.3309ZM66.3399 16.7885C66.3548 16.2561 66.2468 15.8393 66.0159 15.538C65.7896 15.2316 65.4382 15.0784 64.961 15.0784C64.7199 15.0784 64.509 15.1236 64.3285 15.214C64.1525 15.3044 64.0045 15.4275 63.8839 15.5832C63.7685 15.7339 63.6776 15.9146 63.6125 16.1256C63.5525 16.3315 63.517 16.5525 63.5073 16.7885H66.3399ZM74.3702 14.7921C74.3702 14.9729 74.365 15.1211 74.3548 15.2367C74.345 15.3521 74.3296 15.4425 74.3096 15.5079C74.2896 15.5731 74.2622 15.6183 74.2268 15.6434C74.1965 15.6685 74.1565 15.6811 74.1062 15.6811C74.0662 15.6811 74.021 15.6736 73.9708 15.6585C73.9205 15.6384 73.8628 15.6183 73.7976 15.5982C73.737 15.5781 73.6696 15.5606 73.5942 15.5455C73.5188 15.5254 73.4359 15.5154 73.3456 15.5154C73.2399 15.5154 73.1348 15.538 73.029 15.5832C72.9233 15.6233 72.813 15.6887 72.6976 15.7791C72.5873 15.8695 72.469 15.99 72.3433 16.1406C72.2228 16.2913 72.0925 16.4772 71.9519 16.6981V20.8868C71.9519 20.9369 71.9365 20.9822 71.9068 21.0224C71.8765 21.0575 71.8239 21.0876 71.7485 21.1128C71.6782 21.1378 71.5828 21.1554 71.4622 21.1655C71.3416 21.1805 71.1885 21.1881 71.0028 21.1881C70.8165 21.1881 70.6633 21.1805 70.5428 21.1655C70.4228 21.1554 70.3245 21.1378 70.249 21.1128C70.1788 21.0876 70.1285 21.0575 70.0988 21.0224C70.0685 20.9822 70.0536 20.9369 70.0536 20.8868V14.1669C70.0536 14.1167 70.0656 14.074 70.0908 14.0388C70.1159 13.9987 70.161 13.966 70.2268 13.9409C70.2919 13.9157 70.3748 13.8982 70.4753 13.8881C70.5805 13.873 70.7113 13.8655 70.8668 13.8655C71.0279 13.8655 71.161 13.873 71.2662 13.8881C71.3719 13.8982 71.4519 13.9157 71.5073 13.9409C71.5673 13.966 71.6102 13.9987 71.6353 14.0388C71.6605 14.074 71.673 14.1167 71.673 14.1669V15.0031C71.849 14.752 72.0148 14.5461 72.1702 14.3853C72.3262 14.2196 72.4742 14.0891 72.6148 13.9936C72.7553 13.8982 72.8959 13.8329 73.0365 13.7977C73.177 13.7576 73.3176 13.7375 73.4582 13.7375C73.5239 13.7375 73.5942 13.7425 73.6696 13.7525C73.7445 13.7576 73.8228 13.7701 73.9028 13.7902C73.9833 13.8053 74.0536 13.8253 74.1136 13.8505C74.1742 13.8705 74.217 13.8932 74.2422 13.9182C74.2719 13.9434 74.2919 13.971 74.3022 14.0012C74.317 14.0313 74.3296 14.074 74.3399 14.1292C74.3502 14.1795 74.3576 14.2573 74.3628 14.3628C74.3673 14.4682 74.3702 14.6113 74.3702 14.7921ZM81.225 20.9093C81.225 20.9797 81.1999 21.0349 81.1496 21.0751C81.0999 21.1153 81.0193 21.1429 80.909 21.158C80.8033 21.178 80.645 21.1881 80.4342 21.1881C80.2079 21.1881 80.0422 21.178 79.937 21.158C79.8365 21.1429 79.7639 21.1153 79.7188 21.0751C79.6782 21.0349 79.6582 20.9797 79.6582 20.9093V20.3745C79.3822 20.6708 79.0656 20.9018 78.709 21.0676C78.3576 21.2333 77.9656 21.3161 77.5336 21.3161C77.177 21.3161 76.8485 21.2684 76.5468 21.173C76.2508 21.0826 75.9919 20.947 75.7708 20.7662C75.5548 20.5804 75.3868 20.3519 75.2662 20.0807C75.1456 19.8095 75.0856 19.493 75.0856 19.1314C75.0856 18.7397 75.1605 18.4007 75.3113 18.1144C75.4673 17.8231 75.6953 17.5845 75.997 17.3988C76.3033 17.2079 76.6827 17.0673 77.1347 16.9769C77.5867 16.8865 78.1113 16.8413 78.709 16.8413H79.3645V16.4345C79.3645 16.2235 79.3416 16.0402 79.2965 15.8845C79.2565 15.7238 79.1862 15.5907 79.0856 15.4852C78.9902 15.3798 78.8599 15.3019 78.6942 15.2517C78.533 15.2014 78.3325 15.1764 78.0913 15.1764C77.7748 15.1764 77.4913 15.2115 77.2399 15.2819C76.9936 15.3521 76.7753 15.43 76.5845 15.5154C76.3936 15.6008 76.233 15.6786 76.1022 15.7489C75.977 15.8192 75.8742 15.8544 75.7936 15.8544C75.7382 15.8544 75.6879 15.8368 75.6428 15.8016C75.6028 15.7665 75.5673 15.7163 75.5376 15.651C75.5125 15.5857 75.4925 15.5053 75.477 15.4099C75.4622 15.3145 75.4548 15.209 75.4548 15.0935C75.4548 14.9378 75.4673 14.8148 75.4925 14.7244C75.517 14.634 75.565 14.5536 75.6353 14.4833C75.7056 14.408 75.8285 14.3276 76.0045 14.2422C76.1805 14.1518 76.3862 14.0689 76.6222 13.9936C76.8582 13.9183 77.1142 13.858 77.3908 13.8128C77.6719 13.7626 77.9605 13.7375 78.257 13.7375C78.7845 13.7375 79.2336 13.7902 79.6056 13.8957C79.9822 13.9961 80.2908 14.1543 80.5319 14.3702C80.773 14.5812 80.949 14.8549 81.0593 15.1914C81.1702 15.5279 81.225 15.9272 81.225 16.3893V20.9093ZM79.3645 18.0316H78.641C78.3348 18.0316 78.0736 18.0541 77.8576 18.0993C77.6416 18.1445 77.4662 18.2124 77.3302 18.3028C77.1948 18.3932 77.0942 18.5036 77.029 18.6343C76.969 18.7598 76.9388 18.9055 76.9388 19.0712C76.9388 19.3524 77.0268 19.5734 77.2022 19.7341C77.3833 19.8948 77.6319 19.9752 77.9479 19.9752C78.2142 19.9752 78.4576 19.9074 78.6788 19.7718C78.905 19.6362 79.1336 19.4378 79.3645 19.1767V18.0316ZM88.1633 18.9883C88.1633 19.37 88.0902 19.7065 87.9445 19.9978C87.8039 20.2891 87.6033 20.5326 87.3422 20.7285C87.081 20.9244 86.7719 21.0701 86.4153 21.1655C86.0588 21.2659 85.6719 21.3161 85.2553 21.3161C85.0039 21.3161 84.7633 21.2961 84.5319 21.2559C84.3062 21.2207 84.1028 21.1755 83.9216 21.1202C83.741 21.06 83.5902 20.9997 83.4696 20.9395C83.3496 20.8792 83.2616 20.824 83.2062 20.7737C83.1507 20.7185 83.1085 20.6356 83.0782 20.5251C83.0479 20.4096 83.033 20.2414 83.033 20.0204C83.033 19.8748 83.0382 19.7592 83.0479 19.6738C83.0582 19.5834 83.073 19.5131 83.093 19.4629C83.113 19.4077 83.1382 19.3725 83.1685 19.3574C83.1988 19.3373 83.2365 19.3273 83.2816 19.3273C83.337 19.3273 83.417 19.36 83.5227 19.4252C83.633 19.4855 83.7685 19.5533 83.9296 19.6287C84.0902 19.704 84.2759 19.7743 84.4868 19.8396C84.7028 19.9049 84.9462 19.9375 85.2176 19.9375C85.3885 19.9375 85.5393 19.92 85.6696 19.8848C85.805 19.8496 85.921 19.7994 86.0159 19.7341C86.1165 19.6688 86.1919 19.586 86.2422 19.4855C86.2925 19.3851 86.3176 19.2696 86.3176 19.139C86.3176 18.9883 86.2696 18.8603 86.1742 18.7548C86.0839 18.6443 85.961 18.5488 85.805 18.4685C85.6548 18.3881 85.481 18.3128 85.2856 18.2425C85.0948 18.1722 84.8965 18.0943 84.6902 18.0089C84.4896 17.9236 84.2908 17.8256 84.0953 17.7152C83.9045 17.6046 83.7308 17.4691 83.5753 17.3084C83.4245 17.1476 83.3016 16.9543 83.2062 16.7283C83.1159 16.5023 83.0707 16.231 83.0707 15.9146C83.0707 15.5932 83.1336 15.2994 83.2588 15.0332C83.3845 14.762 83.565 14.531 83.8016 14.3401C84.0376 14.1493 84.3239 14.0012 84.6599 13.8957C85.0016 13.7902 85.3833 13.7375 85.805 13.7375C86.0159 13.7375 86.2193 13.7525 86.4153 13.7827C86.6165 13.8128 86.797 13.8505 86.9576 13.8957C87.1188 13.9409 87.2542 13.9911 87.3645 14.0464C87.4753 14.0965 87.553 14.1417 87.5982 14.182C87.6485 14.2171 87.6833 14.2548 87.7039 14.2949C87.7239 14.3301 87.7388 14.3753 87.749 14.4305C87.7588 14.4808 87.7662 14.5461 87.7713 14.6264C87.7816 14.7017 87.7868 14.7972 87.7868 14.9127C87.7868 15.0483 87.7816 15.1588 87.7713 15.2441C87.7662 15.3296 87.7542 15.3973 87.7336 15.4476C87.7188 15.4978 87.6959 15.5329 87.6662 15.5531C87.6359 15.5681 87.6005 15.5756 87.5605 15.5756C87.5153 15.5756 87.445 15.5505 87.3496 15.5003C87.2542 15.445 87.1336 15.3873 86.9879 15.3271C86.8473 15.2668 86.6816 15.2115 86.4907 15.1613C86.305 15.106 86.0913 15.0784 85.8502 15.0784C85.6799 15.0784 85.5313 15.096 85.4062 15.1312C85.2805 15.1663 85.1776 15.2165 85.097 15.2819C85.0165 15.3471 84.9565 15.425 84.9165 15.5154C84.8759 15.6008 84.8559 15.6937 84.8559 15.7941C84.8559 15.9498 84.9039 16.0804 84.9993 16.1858C85.0947 16.2913 85.2199 16.3842 85.3759 16.4646C85.5313 16.5449 85.7073 16.6202 85.9033 16.6906C86.1039 16.7609 86.305 16.8388 86.5056 16.9241C86.7119 17.0045 86.9125 17.0999 87.1085 17.2104C87.3096 17.3209 87.4879 17.4565 87.6433 17.6172C87.7993 17.7779 87.9245 17.9713 88.0199 18.1973C88.1153 18.4182 88.1633 18.682 88.1633 18.9883ZM95.6285 20.9093C95.6285 20.9797 95.6033 21.0349 95.553 21.0751C95.5033 21.1153 95.4228 21.1429 95.3125 21.158C95.2068 21.178 95.0485 21.1881 94.8376 21.1881C94.6113 21.1881 94.4456 21.178 94.3405 21.158C94.2399 21.1429 94.1673 21.1153 94.1222 21.0751C94.0816 21.0349 94.0616 20.9797 94.0616 20.9093V20.3745C93.7856 20.6708 93.469 20.9018 93.1125 21.0676C92.761 21.2333 92.369 21.3161 91.937 21.3161C91.5805 21.3161 91.2519 21.2684 90.9502 21.173C90.6542 21.0826 90.3953 20.947 90.1742 20.7662C89.9582 20.5804 89.7902 20.3519 89.6696 20.0807C89.549 19.8095 89.489 19.493 89.489 19.1314C89.489 18.7397 89.5639 18.4007 89.7148 18.1144C89.8708 17.8231 90.0988 17.5845 90.4005 17.3988C90.7068 17.2079 91.0862 17.0673 91.5382 16.9769C91.9902 16.8865 92.5148 16.8413 93.1125 16.8413H93.7679V16.4345C93.7679 16.2235 93.745 16.0402 93.6999 15.8845C93.6599 15.7238 93.5896 15.5907 93.489 15.4852C93.3936 15.3798 93.2633 15.3019 93.0976 15.2517C92.9365 15.2014 92.7359 15.1764 92.4948 15.1764C92.1782 15.1764 91.8948 15.2115 91.6433 15.2819C91.397 15.3521 91.1788 15.43 90.9879 15.5154C90.797 15.6008 90.6365 15.6786 90.5056 15.7489C90.3805 15.8192 90.277 15.8544 90.197 15.8544C90.1416 15.8544 90.0913 15.8368 90.0462 15.8016C90.0062 15.7665 89.9708 15.7163 89.941 15.651C89.9159 15.5857 89.8959 15.5053 89.8805 15.4099C89.8656 15.3145 89.8582 15.209 89.8582 15.0935C89.8582 14.9378 89.8707 14.8148 89.8959 14.7244C89.9205 14.634 89.9685 14.5536 90.0387 14.4833C90.109 14.408 90.2319 14.3276 90.4079 14.2422C90.5839 14.1518 90.7896 14.0689 91.0256 13.9936C91.2616 13.9183 91.5176 13.858 91.7942 13.8128C92.0753 13.7626 92.3639 13.7375 92.6605 13.7375C93.1879 13.7375 93.637 13.7902 94.009 13.8957C94.3856 13.9961 94.6942 14.1543 94.9353 14.3702C95.1765 14.5812 95.3525 14.8549 95.4628 15.1914C95.5736 15.5279 95.6285 15.9272 95.6285 16.3893V20.9093ZM93.7679 18.0316H93.0445C92.7382 18.0316 92.477 18.0541 92.261 18.0993C92.045 18.1445 91.8696 18.2124 91.7336 18.3028C91.5982 18.3932 91.4976 18.5036 91.4325 18.6343C91.3725 18.7598 91.3422 18.9055 91.3422 19.0712C91.3422 19.3524 91.4302 19.5734 91.6056 19.7341C91.7868 19.8948 92.0353 19.9752 92.3513 19.9752C92.6176 19.9752 92.861 19.9074 93.0822 19.7718C93.3085 19.6362 93.537 19.4378 93.7679 19.1767V18.0316Z" fill="#F2F2F2"/>
<path d="M6.85703 8V14.8571H17.1427C19.0363 14.8571 20.5713 13.3221 20.5713 11.4286C20.5713 9.53503 19.0363 8 17.1427 8H6.85703Z" fill="#F2F2F2"/>
<path d="M6.85703 17.1422L6.85708 20.5708C6.85708 22.4644 8.39211 23.9994 10.2857 23.9994H20.5714V20.5708C20.5714 18.6773 19.0363 17.1422 17.1427 17.1422H6.85703Z" fill="#F2F2F2"/>
</g>
<defs>
<clipPath id="clip0_1336_3430">
<rect width="102.857" height="32" fill="white"/>
</clipPath>
</defs>
</svg>
