<svg width="149" height="40" viewBox="0 0 149 40" fill="none" xmlns="http://www.w3.org/2000/svg">
<g clip-path="url(#clip0_1336_40309)">
<g clip-path="url(#clip1_1336_40309)">
<path d="M5.42285 12.5326C5.42285 11.8621 5.42285 11.5269 5.63113 11.3186C5.83941 11.1104 6.17463 11.1104 6.84507 11.1104H13.9557C14.6261 11.1104 14.9614 11.1104 15.1697 10.9021C15.3779 10.6938 15.3779 10.3585 15.3779 9.68799C15.3779 9.01745 15.3779 8.68218 15.5862 8.4739C15.7945 8.26562 16.1297 8.26562 16.8002 8.26562H23.1998C23.8703 8.26562 24.2055 8.26562 24.4138 8.4739C24.6221 8.68218 24.6221 9.01745 24.6221 9.68799C24.6221 10.3585 24.6221 10.6938 24.8303 10.9021C25.0386 11.1104 25.3739 11.1104 26.0443 11.1104H33.1559C33.8263 11.1104 34.1616 11.1104 34.3698 11.3186C34.5781 11.5269 34.5781 11.8621 34.5781 12.5326V13.2438C34.5781 13.9142 34.5781 14.2495 34.7864 14.4577C34.9947 14.666 35.3299 14.666 36.0003 14.666H43.8229C44.4933 14.666 44.8286 14.666 45.0368 14.4577C45.2451 14.2495 45.2451 13.9142 45.2451 13.2438V11.8216C45.2451 11.1512 45.2451 10.816 45.0368 10.6077C44.8286 10.3994 44.4933 10.3994 43.8229 10.3994H36.7113C36.0408 10.3994 35.7056 10.3994 35.4973 10.1911C35.2891 9.98285 35.2891 9.64763 35.2891 8.97719V8.26597C35.2891 7.59553 35.2891 7.26031 35.0808 7.05203C34.8725 6.84375 34.5373 6.84375 33.8668 6.84375H26.7562C26.0858 6.84375 25.7505 6.84375 25.5423 6.63547C25.334 6.42719 25.334 6.09192 25.334 5.42139C25.334 4.75085 25.334 4.41558 25.1257 4.2073C24.9174 3.99902 24.5822 3.99902 23.9118 3.99902H16.0892C15.4188 3.99902 15.0836 3.99902 14.8753 4.2073C14.667 4.41558 14.667 4.75085 14.667 5.42139C14.667 6.09192 14.667 6.42719 14.4587 6.63547C14.2504 6.84375 13.9152 6.84375 13.2448 6.84375H6.13414C5.46369 6.84375 5.12847 6.84375 4.92019 7.05203C4.71191 7.26031 4.71191 7.59553 4.71191 8.26597V8.97719C4.71191 9.64763 4.71191 9.98285 4.50363 10.1911C4.29535 10.3994 3.96013 10.3994 3.28969 10.3994H-3.82192C-4.49236 10.3994 -4.82758 10.3994 -5.03586 10.6077C-5.24414 10.816 -5.24414 11.1512 -5.24414 11.8216V13.2438C-5.24414 13.9142 -5.24414 14.2495 -5.03586 14.4577C-4.82758 14.666 -4.49236 14.666 -3.82192 14.666H4.00063C4.67107 14.666 5.00629 14.666 5.21457 14.4577C5.42285 14.2495 5.42285 13.9142 5.42285 13.2438V12.5326Z" fill="#050212"/>
<g clip-path="url(#clip2_1336_40309)">
<rect x="13.2441" y="13.2441" width="13.5111" height="13.5111" rx="6.75556" fill="url(#paint0_radial_1336_40309)"/>
</g>
<path d="M5.42285 27.4674C5.42285 28.1379 5.42285 28.4731 5.63113 28.6814C5.83941 28.8896 6.17463 28.8896 6.84507 28.8896H13.9557C14.6261 28.8896 14.9614 28.8896 15.1697 29.0979C15.3779 29.3062 15.3779 29.6415 15.3779 30.312C15.3779 30.9825 15.3779 31.3178 15.5862 31.5261C15.7945 31.7344 16.1297 31.7344 16.8002 31.7344H23.1998C23.8703 31.7344 24.2055 31.7344 24.4138 31.5261C24.6221 31.3178 24.6221 30.9825 24.6221 30.312C24.6221 29.6415 24.6221 29.3062 24.8303 29.0979C25.0386 28.8896 25.3739 28.8896 26.0443 28.8896H33.1559C33.8263 28.8896 34.1616 28.8896 34.3698 28.6814C34.5781 28.4731 34.5781 28.1379 34.5781 27.4674V26.7562C34.5781 26.0858 34.5781 25.7505 34.7864 25.5423C34.9947 25.334 35.3299 25.334 36.0003 25.334H43.8229C44.4933 25.334 44.8286 25.334 45.0368 25.5423C45.2451 25.7505 45.2451 26.0858 45.2451 26.7562V28.1784C45.2451 28.8488 45.2451 29.184 45.0368 29.3923C44.8286 29.6006 44.4933 29.6006 43.8229 29.6006H36.7113C36.0408 29.6006 35.7056 29.6006 35.4973 29.8089C35.2891 30.0171 35.2891 30.3524 35.2891 31.0228V31.734C35.2891 32.4045 35.2891 32.7397 35.0808 32.948C34.8725 33.1562 34.5373 33.1562 33.8668 33.1562H26.7562C26.0858 33.1562 25.7505 33.1562 25.5423 33.3645C25.334 33.5728 25.334 33.9081 25.334 34.5786C25.334 35.2491 25.334 35.5844 25.1257 35.7927C24.9174 36.001 24.5822 36.001 23.9118 36.001H16.0892C15.4188 36.001 15.0836 36.001 14.8753 35.7927C14.667 35.5844 14.667 35.2491 14.667 34.5786C14.667 33.9081 14.667 33.5728 14.4587 33.3645C14.2504 33.1562 13.9152 33.1562 13.2448 33.1562H6.13414C5.46369 33.1562 5.12847 33.1562 4.92019 32.948C4.71191 32.7397 4.71191 32.4045 4.71191 31.734V31.0228C4.71191 30.3524 4.71191 30.0171 4.50363 29.8089C4.29535 29.6006 3.96013 29.6006 3.28969 29.6006H-3.82192C-4.49236 29.6006 -4.82758 29.6006 -5.03586 29.3923C-5.24414 29.184 -5.24414 28.8488 -5.24414 28.1784V26.7562C-5.24414 26.0858 -5.24414 25.7505 -5.03586 25.5423C-4.82758 25.334 -4.49236 25.334 -3.82192 25.334H4.00063C4.67107 25.334 5.00629 25.334 5.21457 25.5423C5.42285 25.7505 5.42285 26.0858 5.42285 26.7562V27.4674Z" fill="#050212"/>
</g>
</g>
<path d="M64.733 9.63636L70.0327 25.6648H70.2415L75.5312 9.63636H79.5881L72.4091 30H67.8551L60.6861 9.63636H64.733ZM81.5512 30V14.7273H85.1506V30H81.5512ZM83.3608 12.5597C82.7907 12.5597 82.3002 12.3707 81.8892 11.9929C81.4782 11.6084 81.2727 11.1477 81.2727 10.6108C81.2727 10.0672 81.4782 9.60653 81.8892 9.22869C82.3002 8.84422 82.7907 8.65199 83.3608 8.65199C83.9375 8.65199 84.428 8.84422 84.8324 9.22869C85.2434 9.60653 85.4489 10.0672 85.4489 10.6108C85.4489 11.1477 85.2434 11.6084 84.8324 11.9929C84.428 12.3707 83.9375 12.5597 83.3608 12.5597ZM88.0931 30V27.7131L95.9681 17.8395V17.7102H88.3516V14.7273H100.373V17.1832L92.8757 26.8878V27.017H100.631V30H88.0931ZM103.455 30V14.7273H107.054V30H103.455ZM105.264 12.5597C104.694 12.5597 104.204 12.3707 103.793 11.9929C103.382 11.6084 103.176 11.1477 103.176 10.6108C103.176 10.0672 103.382 9.60653 103.793 9.22869C104.204 8.84422 104.694 8.65199 105.264 8.65199C105.841 8.65199 106.331 8.84422 106.736 9.22869C107.147 9.60653 107.352 10.0672 107.352 10.6108C107.352 11.1477 107.147 11.6084 106.736 11.9929C106.331 12.3707 105.841 12.5597 105.264 12.5597ZM110.354 30V9.63636H113.954V17.2528H114.103C114.289 16.8816 114.55 16.4872 114.889 16.0696C115.227 15.6454 115.684 15.2841 116.261 14.9858C116.837 14.6809 117.573 14.5284 118.468 14.5284C119.648 14.5284 120.712 14.83 121.66 15.4332C122.614 16.0298 123.37 16.9148 123.927 18.0881C124.49 19.2547 124.772 20.6866 124.772 22.3835C124.772 24.0606 124.497 25.4858 123.947 26.6591C123.397 27.8324 122.648 28.7273 121.7 29.3438C120.752 29.9602 119.678 30.2685 118.478 30.2685C117.603 30.2685 116.877 30.1226 116.3 29.831C115.724 29.5393 115.26 29.188 114.908 28.777C114.564 28.3594 114.295 27.965 114.103 27.5938H113.894V30H110.354ZM113.884 22.3636C113.884 23.3513 114.023 24.2164 114.302 24.9588C114.587 25.7012 114.995 26.2812 115.525 26.6989C116.062 27.1098 116.711 27.3153 117.474 27.3153C118.269 27.3153 118.935 27.1032 119.472 26.679C120.009 26.2481 120.414 25.6615 120.685 24.919C120.964 24.17 121.103 23.3182 121.103 22.3636C121.103 21.4157 120.967 20.5739 120.695 19.8381C120.424 19.1023 120.019 18.5256 119.482 18.108C118.945 17.6903 118.276 17.4815 117.474 17.4815C116.705 17.4815 116.052 17.6837 115.515 18.0881C114.978 18.4924 114.57 19.0592 114.292 19.7884C114.02 20.5175 113.884 21.3759 113.884 22.3636ZM130.872 9.63636V30H127.272V9.63636H130.872ZM140.774 30.2983C139.243 30.2983 137.921 29.9801 136.807 29.3438C135.7 28.7008 134.848 27.7926 134.252 26.6193C133.655 25.4394 133.357 24.0507 133.357 22.4531C133.357 20.8821 133.655 19.5033 134.252 18.3168C134.855 17.1236 135.697 16.1955 136.777 15.5327C137.858 14.8632 139.127 14.5284 140.585 14.5284C141.527 14.5284 142.415 14.6809 143.25 14.9858C144.092 15.2841 144.834 15.7481 145.477 16.3778C146.127 17.0076 146.637 17.8097 147.009 18.7841C147.38 19.7519 147.565 20.9053 147.565 22.2443V23.348H135.047V20.9219H144.115C144.109 20.2325 143.959 19.6193 143.668 19.0824C143.376 18.5388 142.968 18.1113 142.445 17.7997C141.928 17.4882 141.324 17.3324 140.635 17.3324C139.899 17.3324 139.253 17.5114 138.696 17.8693C138.139 18.2206 137.705 18.6847 137.394 19.2614C137.089 19.8314 136.933 20.4579 136.926 21.1406V23.2585C136.926 24.1468 137.089 24.9091 137.413 25.5455C137.738 26.1752 138.192 26.6591 138.776 26.9972C139.359 27.3286 140.042 27.4943 140.824 27.4943C141.348 27.4943 141.822 27.4214 142.246 27.2756C142.67 27.1231 143.038 26.901 143.35 26.6094C143.661 26.3177 143.896 25.9564 144.055 25.5256L147.416 25.9034C147.204 26.7917 146.8 27.5672 146.203 28.2301C145.613 28.8864 144.858 29.3968 143.936 29.7614C143.015 30.1193 141.961 30.2983 140.774 30.2983Z" fill="black"/>
<defs>
<radialGradient id="paint0_radial_1336_40309" cx="0" cy="0" r="1" gradientUnits="userSpaceOnUse" gradientTransform="translate(19.6664 12.9997) rotate(83.0189) scale(24.683 58.8972)">
<stop offset="0.367537" stop-color="#050212"/>
<stop offset="0.84408" stop-color="#050212" stop-opacity="0"/>
</radialGradient>
<clipPath id="clip0_1336_40309">
<rect width="40" height="40" fill="white"/>
</clipPath>
<clipPath id="clip1_1336_40309">
<rect width="42.6667" height="32" fill="white" transform="translate(-1.33398 4)"/>
</clipPath>
<clipPath id="clip2_1336_40309">
<rect width="42.6667" height="13.5111" fill="white" transform="translate(-1.33398 13.2441)"/>
</clipPath>
</defs>
</svg>
